<?xml version="1.0" encoding="UTF-8" standalone="no"?>
<!-- Created with Inkscape (http://www.inkscape.org/) -->

<svg
   xmlns:dc="http://purl.org/dc/elements/1.1/"
   xmlns:cc="http://creativecommons.org/ns#"
   xmlns:rdf="http://www.w3.org/1999/02/22-rdf-syntax-ns#"
   xmlns:svg="http://www.w3.org/2000/svg"
   xmlns="http://www.w3.org/2000/svg"
   xmlns:sodipodi="http://sodipodi.sourceforge.net/DTD/sodipodi-0.dtd"
   xmlns:inkscape="http://www.inkscape.org/namespaces/inkscape"
   width="32mm"
   height="32mm"
   viewBox="0 0 32 32"
   version="1.1"
   id="svg8"
   inkscape:version="0.92.2 (5c3e80d, 2017-08-06)"
   sodipodi:docname="favicon.svg">
  <defs
     id="defs2">
    <filter
       inkscape:collect="always"
       style="color-interpolation-filters:sRGB"
       id="filter5507"
       x="-0.76339053"
       width="2.5267811"
       y="-0.5223678"
       height="2.0447356">
      <feGaussianBlur
         inkscape:collect="always"
         stdDeviation="2.8295034"
         id="feGaussianBlur5509" />
    </filter>
    <filter
       inkscape:collect="always"
       style="color-interpolation-filters:sRGB"
       id="filter5511"
       x="-0.61734632"
       width="2.2346926"
       y="-0.6790613"
       height="2.3581226">
      <feGaussianBlur
         inkscape:collect="always"
         stdDeviation="2.8295034"
         id="feGaussianBlur5513" />
    </filter>
    <filter
       inkscape:collect="always"
       style="color-interpolation-filters:sRGB"
       id="filter5515"
       x="-0.61734561"
       width="2.2346912"
       y="-0.52238136"
       height="2.0447627">
      <feGaussianBlur
         inkscape:collect="always"
         stdDeviation="2.8295034"
         id="feGaussianBlur5517" />
    </filter>
  </defs>
  <sodipodi:namedview
     id="base"
     pagecolor="#ffffff"
     bordercolor="#666666"
     borderopacity="1.0"
     inkscape:pageopacity="0.0"
     inkscape:pageshadow="2"
     inkscape:zoom="0.98994949"
     inkscape:cx="46.774375"
     inkscape:cy="40.859142"
     inkscape:document-units="mm"
     inkscape:current-layer="layer1"
     showgrid="false"
     inkscape:window-width="3200"
     inkscape:window-height="1709"
     inkscape:window-x="0"
     inkscape:window-y="33"
     inkscape:window-maximized="1"
     fit-margin-top="0"
     fit-margin-left="0"
     fit-margin-right="0"
     fit-margin-bottom="0" />
  <metadata
     id="metadata5">
    <rdf:RDF>
      <cc:Work
         rdf:about="">
        <dc:format>image/svg+xml</dc:format>
        <dc:type
           rdf:resource="http://purl.org/dc/dcmitype/StillImage" />
        <dc:title></dc:title>
      </cc:Work>
    </rdf:RDF>
  </metadata>
  <g
     inkscape:label="Layer 1"
     inkscape:groupmode="layer"
     id="layer1"
     transform="translate(-80,-103)">
    <rect
       style="opacity:1;fill:#000000;stroke-width:0.26458332"
       id="rect250"
       width="32"
       height="32"
       x="80"
       y="103" />
    <path
       style="fill:#00e700;fill-opacity:1;stroke-width:0.91105783"
       d="m 100.11311,104.58244 c 0.19721,-0.59622 0.91167,-0.57663 1.41402,-0.58004 0.59413,0.0275 1.27052,-0.11295 1.77219,0.29002 0.39704,0.53933 0.2497,1.2628 0.27949,1.89872 0.0173,0.84052 -0.0411,1.68581 0.0436,2.52222 0.011,0.61402 0.66999,0.95706 1.18609,0.74135 0.48588,-0.15782 0.50232,-0.74578 0.67078,-1.16006 0.19721,-0.59621 0.91167,-0.57662 1.41402,-0.58003 0.59412,0.0275 1.27052,-0.11296 1.77218,0.29002 0.41224,0.45167 0.24727,1.37967 -0.39603,1.49039 -0.38702,0.14991 -0.92081,0.20996 -1.02085,0.71619 -0.15743,0.41705 -0.19982,1.00555 -0.70962,1.11977 -0.38326,0.16239 -0.91987,0.19011 -1.0597,0.67588 -0.17453,0.47214 0.043,1.1114 0.56373,1.20037 0.38702,0.14991 0.92081,0.20996 1.02085,0.71621 0.15743,0.41704 0.19982,1.00553 0.70962,1.11976 0.38326,0.16239 0.91987,0.1901 1.0597,0.67588 0.20786,0.53554 -0.12272,1.21929 -0.71445,1.23075 -0.60533,0.0694 -1.22168,0.0574 -1.82893,0.0164 -0.43624,-0.008 -0.80785,-0.31554 -0.8785,-0.76264 -0.12523,-0.38706 -0.21778,-0.89969 -0.68664,-0.97384 -0.45744,-0.142 -1.00755,0.12538 -1.08268,0.64056 -0.13812,0.40314 -0.21355,0.95263 -0.70782,1.03611 -0.6257,0.14047 -1.2751,0.0845 -1.91102,0.0725 -0.62978,0.04 -1.060573,-0.52745 -1.0149,-1.151 -0.01619,-3.4775 -0.003,-6.95563 -0.007,-10.43336 3e-4,-0.27408 0.0282,-0.55091 0.11179,-0.81205 z"
       id="path235"
       inkscape:connector-curvature="0" />
    <path
       style="fill:#00e700;fill-opacity:1;stroke-width:0.95678127"
       d="m 85.950611,107.62591 c 0.191459,-0.625 0.902548,-0.62088 1.402539,-0.62462 1.552827,0.004 3.106028,-0.01 4.658613,0.008 0.457568,0.003 1.002249,0.20545 1.082868,0.76493 0.14487,0.42607 0.205971,1.00924 0.696028,1.1209 0.39438,0.17618 0.945754,0.20514 1.090668,0.7298 0.187638,0.73124 0.09019,1.49858 0.114497,2.24857 -0.01892,0.7678 0.05032,1.54327 -0.0644,2.30343 -0.035,0.44405 -0.389151,0.69522 -0.752404,0.78377 -0.363235,0.1321 -0.832115,0.2338 -0.918735,0.71995 -0.16147,0.4303 -0.188009,1.0319 -0.66888,1.19001 -0.670186,0.20472 -1.373457,0.0984 -2.060835,0.12493 -1.215836,-0.01 -2.432903,0.0211 -3.647882,-0.0177 -0.446722,-0.004 -0.913193,-0.26693 -0.986367,-0.78479 -0.138883,-0.41857 -0.207611,-0.98433 -0.686978,-1.0913 -0.394381,-0.17617 -0.945754,-0.20512 -1.090669,-0.72981 -0.187638,-0.73124 -0.09019,-1.49857 -0.114496,-2.24856 0.01892,-0.76779 -0.05032,-1.54325 0.0644,-2.30344 0.035,-0.44403 0.38915,-0.6952 0.752403,-0.78375 0.363235,-0.13211 0.832116,-0.23379 0.918737,-0.71995 0.07031,-0.2301 0.140596,-0.46021 0.210894,-0.69031 z m 4.007372,7.37066 c 0.563393,0.0391 1.309066,-0.17565 1.329232,-0.9233 0.08459,-0.8537 0.02839,-1.71658 0.04473,-2.57464 -0.0252,-0.68336 0.09027,-1.40692 -0.186056,-2.04567 -0.327368,-0.50633 -0.966643,-0.44211 -1.474058,-0.45285 -0.577594,0.0228 -1.23398,-0.10445 -1.717529,0.3123 -0.395641,0.55678 -0.260342,1.30701 -0.286241,1.96738 0.01262,0.89519 -0.02893,1.79314 0.02862,2.68612 -0.01791,0.73095 0.645957,1.07675 1.232625,1.0287 0.342862,0.004 0.685793,9.3e-4 1.028678,0.002 z"
       id="path237"
       inkscape:connector-curvature="0" />
    <path
       style="fill:#e70000;fill-opacity:1;stroke-width:0.8626982"
       d="m 84.116724,120.5087 c 0.217627,-0.54235 0.980764,-0.50341 1.51644,-0.50765 2.737239,0.004 5.474861,-0.008 8.211858,0.006 0.61565,-0.0415 1.175803,0.34978 1.136399,0.92173 0.0365,1.68788 0.0062,3.37769 0.0161,5.06635 -0.0046,1.99327 0.0094,3.98688 -0.0071,5.97995 0.04678,0.54576 -0.394566,1.04232 -1.039761,1.00737 -1.904055,0.0323 -3.810292,0.005 -5.715214,0.0143 -1.095863,-0.0128 -2.194503,0.028 -3.288294,-0.0253 -0.670143,0.0159 -0.987181,-0.57282 -0.943123,-1.09305 5.56e-4,-3.61857 -0.01009,-7.23755 0.0055,-10.85593 0.01317,-0.17417 0.04509,-0.34807 0.107376,-0.514 z"
       id="path241"
       inkscape:connector-curvature="0" />
    <path
       inkscape:connector-curvature="0"
       id="path5465"
       d="m 100.11311,104.58244 c 0.19721,-0.59622 0.91167,-0.57663 1.41402,-0.58004 0.59413,0.0275 1.27052,-0.11295 1.77219,0.29002 0.39704,0.53933 0.2497,1.2628 0.27949,1.89872 0.0173,0.84052 -0.0411,1.68581 0.0436,2.52222 0.011,0.61402 0.66999,0.95706 1.18609,0.74135 0.48588,-0.15782 0.50232,-0.74578 0.67078,-1.16006 0.19721,-0.59621 0.91167,-0.57662 1.41402,-0.58003 0.59412,0.0275 1.27052,-0.11296 1.77218,0.29002 0.41224,0.45167 0.24727,1.37967 -0.39603,1.49039 -0.38702,0.14991 -0.92081,0.20996 -1.02085,0.71619 -0.15743,0.41705 -0.19982,1.00555 -0.70962,1.11977 -0.38326,0.16239 -0.91987,0.19011 -1.0597,0.67588 -0.17453,0.47214 0.043,1.1114 0.56373,1.20037 0.38702,0.14991 0.92081,0.20996 1.02085,0.71621 0.15743,0.41704 0.19982,1.00553 0.70962,1.11976 0.38326,0.16239 0.91987,0.1901 1.0597,0.67588 0.20786,0.53554 -0.12272,1.21929 -0.71445,1.23075 -0.60533,0.0694 -1.22168,0.0574 -1.82893,0.0164 -0.43624,-0.008 -0.80785,-0.31554 -0.8785,-0.76264 -0.12523,-0.38706 -0.21778,-0.89969 -0.68664,-0.97384 -0.45744,-0.142 -1.00755,0.12538 -1.08268,0.64056 -0.13812,0.40314 -0.21355,0.95263 -0.70782,1.03611 -0.6257,0.14047 -1.2751,0.0845 -1.91102,0.0725 -0.62978,0.04 -1.060573,-0.52745 -1.0149,-1.151 -0.01619,-3.4775 -0.003,-6.95563 -0.007,-10.43336 3e-4,-0.27408 0.0282,-0.55091 0.11179,-0.81205 z"
       style="fill:#19ff19;fill-opacity:1;stroke-width:0.91105783;filter:url(#filter5507)" />
    <path
       inkscape:connector-curvature="0"
       id="path5467"
       d="m 85.950611,107.62591 c 0.191459,-0.625 0.902548,-0.62088 1.402539,-0.62462 1.552827,0.004 3.106028,-0.01 4.658613,0.008 0.457568,0.003 1.002249,0.20545 1.082868,0.76493 0.14487,0.42607 0.205971,1.00924 0.696028,1.1209 0.39438,0.17618 0.945754,0.20514 1.090668,0.7298 0.187638,0.73124 0.09019,1.49858 0.114497,2.24857 -0.01892,0.7678 0.05032,1.54327 -0.0644,2.30343 -0.035,0.44405 -0.389151,0.69522 -0.752404,0.78377 -0.363235,0.1321 -0.832115,0.2338 -0.918735,0.71995 -0.16147,0.4303 -0.188009,1.0319 -0.66888,1.19001 -0.670186,0.20472 -1.373457,0.0984 -2.060835,0.12493 -1.215836,-0.01 -2.432903,0.0211 -3.647882,-0.0177 -0.446722,-0.004 -0.913193,-0.26693 -0.986367,-0.78479 -0.138883,-0.41857 -0.207611,-0.98433 -0.686978,-1.0913 -0.394381,-0.17617 -0.945754,-0.20512 -1.090669,-0.72981 -0.187638,-0.73124 -0.09019,-1.49857 -0.114496,-2.24856 0.01892,-0.76779 -0.05032,-1.54325 0.0644,-2.30344 0.035,-0.44403 0.38915,-0.6952 0.752403,-0.78375 0.363235,-0.13211 0.832116,-0.23379 0.918737,-0.71995 0.07031,-0.2301 0.140596,-0.46021 0.210894,-0.69031 z m 4.007372,7.37066 c 0.563393,0.0391 1.309066,-0.17565 1.329232,-0.9233 0.08459,-0.8537 0.02839,-1.71658 0.04473,-2.57464 -0.0252,-0.68336 0.09027,-1.40692 -0.186056,-2.04567 -0.327368,-0.50633 -0.966643,-0.44211 -1.474058,-0.45285 -0.577594,0.0228 -1.23398,-0.10445 -1.717529,0.3123 -0.395641,0.55678 -0.260342,1.30701 -0.286241,1.96738 0.01262,0.89519 -0.02893,1.79314 0.02862,2.68612 -0.01791,0.73095 0.645957,1.07675 1.232625,1.0287 0.342862,0.004 0.685793,9.3e-4 1.028678,0.002 z"
       style="fill:#19ff19;fill-opacity:1;stroke-width:0.95678127;filter:url(#filter5511)" />
    <path
       inkscape:connector-curvature="0"
       id="path5469"
       d="m 84.116724,120.5087 c 0.217627,-0.54235 0.980764,-0.50341 1.51644,-0.50765 2.737239,0.004 5.474861,-0.008 8.211858,0.006 0.61565,-0.0415 1.175803,0.34978 1.136399,0.92173 0.0365,1.68788 0.0062,3.37769 0.0161,5.06635 -0.0046,1.99327 0.0094,3.98688 -0.0071,5.97995 0.04678,0.54576 -0.394566,1.04232 -1.039761,1.00737 -1.904055,0.0323 -3.810292,0.005 -5.715214,0.0143 -1.095863,-0.0128 -2.194503,0.028 -3.288294,-0.0253 -0.670143,0.0159 -0.987181,-0.57282 -0.943123,-1.09305 5.56e-4,-3.61857 -0.01009,-7.23755 0.0055,-10.85593 0.01317,-0.17417 0.04509,-0.34807 0.107376,-0.514 z"
       style="fill:#ff1919;fill-opacity:1;stroke-width:0.8626982;filter:url(#filter5515)" />
  </g>
</svg>
